<svg width="16" height="16" viewBox="0 0 16 16" fill="none" xmlns="http://www.w3.org/2000/svg">
  <rect width="16" height="16" rx="4" fill="#012169"/>
  <mask id="mask0_uk" maskUnits="userSpaceOnUse" x="0" y="0" width="16" height="16">
    <rect width="16" height="16" rx="4" fill="white"/>
  </mask>
  <g mask="url(#mask0_uk)">
    <path d="M-1.5 1.14286L1.14286 -1.5L17.5 14.8571L14.8571 17.5L-1.5 1.14286Z" fill="white"/>
    <path d="M14.8571 -1.5L17.5 1.14286L1.14286 17.5L-1.5 14.8571L14.8571 -1.5Z" fill="white"/>
    <path d="M-0.214286 1.14286L1.14286 -0.214286L16.2143 14.8571L14.8571 16.2143L-0.214286 1.14286Z" fill="#C8102E"/>
    <path d="M14.8571 -0.214286L16.2143 1.14286L1.14286 16.2143L-0.214286 14.8571L14.8571 -0.214286Z" fill="#C8102E"/>
    <rect x="6" width="4" height="16" fill="white"/>
    <rect y="6" width="16" height="4" fill="white"/>
    <rect x="6.75" width="2.5" height="16" fill="#C8102E"/>
    <rect y="6.75" width="16" height="2.5" fill="#C8102E"/>
  </g>
</svg>
